<svg id="Icons" height="512" viewBox="0 0 60 60" width="512" xmlns="http://www.w3.org/2000/svg"><path d="m12.516 53.979a1 1 0 0 0 1.412 0l.9-.9a1 1 0 0 0 0-1.412l-6.493-6.497a1 1 0 0 0 -1.412 0l-.9.9a1 1 0 0 0 0 1.412z"/><path d="m2.292 53.529a1 1 0 0 0 0 1.412l2.767 2.767a1 1 0 0 0 1.412 0l3.472-3.473-4.178-4.178z"/><path d="m53.979 12.516-6.495-6.495a1 1 0 0 0 -1.412 0l-.9.9a1 1 0 0 0 0 1.412l6.495 6.495a1 1 0 0 0 1.412 0l.9-.9a1 1 0 0 0 0-1.412z"/><path d="m57.708 6.471a1 1 0 0 0 0-1.412l-2.767-2.767a1 1 0 0 0 -1.412 0l-3.472 3.473 4.178 4.178z"/><path d="m5.959 28.622h48.093v2.766h-48.093z" transform="matrix(.707 -.707 .707 .707 -12.429 30.005)"/></svg>