<svg id="Layer_1" enable-background="new 0 0 32 32" height="512" viewBox="0 0 32 32" width="512" xmlns="http://www.w3.org/2000/svg"><path d="m4.03 17.745.673.672.001.001 9.551 9.551 1.314-1.314-10.224-10.224z"/><path d="m6.777 18.568h1.859v11.452h-1.859z" transform="matrix(.707 -.707 .707 .707 -14.921 12.564)"/><path d="m6.927 26.388-1.314-1.314-.46.459v.124l1.191 1.191c.03.029.094.03.124.001z"/><path d="m23.365 1.98h1.859v11.452h-1.859z" transform="matrix(.707 -.707 .707 .707 1.666 19.435)"/><path d="m9.264 15.071h13.472v1.859h-13.472z" transform="matrix(.707 -.707 .707 .707 -6.627 16)"/><path d="m25.533 5.152-.46.46 1.314 1.314.46-.459v-.123l-1.191-1.191c-.03-.029-.093-.03-.123-.001z"/><path d="m27.97 14.255-.673-.672-.001-.001-9.551-9.551-1.314 1.314 10.224 10.224z"/></svg>